<mxfile host="65bd71144e">
    <diagram name="Page-1" id="MBlXISGY8t7rbogC1alH">
        <mxGraphModel dx="765" dy="673" grid="1" gridSize="10" guides="1" tooltips="1" connect="1" arrows="1" fold="1" page="1" pageScale="1" pageWidth="850" pageHeight="1100" math="0" shadow="0">
            <root>
                <mxCell id="0"/>
                <mxCell id="1" parent="0"/>
                <mxCell id="Yse4lq7M_VT5U85Rjjpq-3" style="edgeStyle=orthogonalEdgeStyle;rounded=0;orthogonalLoop=1;jettySize=auto;html=1;" parent="1" source="Yse4lq7M_VT5U85Rjjpq-1" target="Yse4lq7M_VT5U85Rjjpq-2" edge="1">
                    <mxGeometry relative="1" as="geometry"/>
                </mxCell>
                <mxCell id="Qtx2kLDK2WUelq4MLout-5" style="edgeStyle=orthogonalEdgeStyle;rounded=0;orthogonalLoop=1;jettySize=auto;html=1;exitX=0.5;exitY=1;exitDx=0;exitDy=0;entryX=0.5;entryY=0;entryDx=0;entryDy=0;" parent="1" source="Yse4lq7M_VT5U85Rjjpq-1" target="Yse4lq7M_VT5U85Rjjpq-6" edge="1">
                    <mxGeometry relative="1" as="geometry"/>
                </mxCell>
                <mxCell id="Yse4lq7M_VT5U85Rjjpq-1" value="Accueil" style="rounded=1;whiteSpace=wrap;html=1;fillColor=#f5f5f5;strokeColor=#666666;fontColor=#333333;" parent="1" vertex="1">
                    <mxGeometry x="280" y="40" width="120" height="60" as="geometry"/>
                </mxCell>
                <mxCell id="Yse4lq7M_VT5U85Rjjpq-2" value="ParamÃ¨tres" style="rounded=1;whiteSpace=wrap;html=1;fillColor=#f5f5f5;fontColor=#333333;strokeColor=#666666;" parent="1" vertex="1">
                    <mxGeometry x="440" y="50" width="110" height="40" as="geometry"/>
                </mxCell>
                <mxCell id="Yse4lq7M_VT5U85Rjjpq-13" style="edgeStyle=orthogonalEdgeStyle;rounded=0;orthogonalLoop=1;jettySize=auto;html=1;exitX=0.5;exitY=1;exitDx=0;exitDy=0;" parent="1" source="Yse4lq7M_VT5U85Rjjpq-6" target="Yse4lq7M_VT5U85Rjjpq-8" edge="1">
                    <mxGeometry relative="1" as="geometry"/>
                </mxCell>
                <mxCell id="Yse4lq7M_VT5U85Rjjpq-14" style="edgeStyle=orthogonalEdgeStyle;rounded=0;orthogonalLoop=1;jettySize=auto;html=1;exitX=0.5;exitY=1;exitDx=0;exitDy=0;entryX=0.5;entryY=0;entryDx=0;entryDy=0;" parent="1" source="Yse4lq7M_VT5U85Rjjpq-6" target="Yse4lq7M_VT5U85Rjjpq-9" edge="1">
                    <mxGeometry relative="1" as="geometry"/>
                </mxCell>
                <mxCell id="Yse4lq7M_VT5U85Rjjpq-15" style="edgeStyle=orthogonalEdgeStyle;rounded=0;orthogonalLoop=1;jettySize=auto;html=1;exitX=0.5;exitY=1;exitDx=0;exitDy=0;entryX=0.5;entryY=0;entryDx=0;entryDy=0;" parent="1" source="Yse4lq7M_VT5U85Rjjpq-6" target="Yse4lq7M_VT5U85Rjjpq-10" edge="1">
                    <mxGeometry relative="1" as="geometry"/>
                </mxCell>
                <mxCell id="Yse4lq7M_VT5U85Rjjpq-16" style="edgeStyle=orthogonalEdgeStyle;rounded=0;orthogonalLoop=1;jettySize=auto;html=1;exitX=0.5;exitY=1;exitDx=0;exitDy=0;" parent="1" source="Yse4lq7M_VT5U85Rjjpq-6" target="Yse4lq7M_VT5U85Rjjpq-11" edge="1">
                    <mxGeometry relative="1" as="geometry"/>
                </mxCell>
                <mxCell id="Yse4lq7M_VT5U85Rjjpq-6" value="1-1: Le Comte" style="rounded=1;whiteSpace=wrap;html=1;" parent="1" vertex="1">
                    <mxGeometry x="285" y="130" width="110" height="50" as="geometry"/>
                </mxCell>
                <mxCell id="Qtx2kLDK2WUelq4MLout-1" style="edgeStyle=orthogonalEdgeStyle;rounded=0;orthogonalLoop=1;jettySize=auto;html=1;exitX=0.5;exitY=1;exitDx=0;exitDy=0;" parent="1" source="Yse4lq7M_VT5U85Rjjpq-8" target="Yse4lq7M_VT5U85Rjjpq-25" edge="1">
                    <mxGeometry relative="1" as="geometry"/>
                </mxCell>
                <mxCell id="Yse4lq7M_VT5U85Rjjpq-8" value="2-1: Choisir&amp;nbsp;Alvart" style="rounded=1;whiteSpace=wrap;html=1;fillColor=#d5e8d4;strokeColor=#82b366;fontColor=#050505;" parent="1" vertex="1">
                    <mxGeometry x="50" y="230" width="110" height="50" as="geometry"/>
                </mxCell>
                <mxCell id="Qtx2kLDK2WUelq4MLout-2" style="edgeStyle=orthogonalEdgeStyle;rounded=0;orthogonalLoop=1;jettySize=auto;html=1;exitX=0.5;exitY=1;exitDx=0;exitDy=0;" parent="1" source="Yse4lq7M_VT5U85Rjjpq-9" target="Yse4lq7M_VT5U85Rjjpq-25" edge="1">
                    <mxGeometry relative="1" as="geometry"/>
                </mxCell>
                <mxCell id="Yse4lq7M_VT5U85Rjjpq-9" value="3-1: Choisir&amp;nbsp;&lt;span style=&quot;background-color: initial;&quot;&gt;Cherminon&lt;/span&gt;" style="rounded=1;whiteSpace=wrap;html=1;fillColor=#fff2cc;strokeColor=#d6b656;fontColor=#050505;" parent="1" vertex="1">
                    <mxGeometry x="190" y="230" width="140" height="50" as="geometry"/>
                </mxCell>
                <mxCell id="Qtx2kLDK2WUelq4MLout-3" style="edgeStyle=orthogonalEdgeStyle;rounded=0;orthogonalLoop=1;jettySize=auto;html=1;exitX=0.5;exitY=1;exitDx=0;exitDy=0;" parent="1" source="Yse4lq7M_VT5U85Rjjpq-10" target="Yse4lq7M_VT5U85Rjjpq-25" edge="1">
                    <mxGeometry relative="1" as="geometry"/>
                </mxCell>
                <mxCell id="Yse4lq7M_VT5U85Rjjpq-10" value="4-1: Choisir Pain" style="rounded=1;whiteSpace=wrap;html=1;fillColor=#ffe6cc;strokeColor=#d79b00;fontColor=#050505;" parent="1" vertex="1">
                    <mxGeometry x="350" y="230" width="110" height="50" as="geometry"/>
                </mxCell>
                <mxCell id="Qtx2kLDK2WUelq4MLout-4" style="edgeStyle=orthogonalEdgeStyle;rounded=0;orthogonalLoop=1;jettySize=auto;html=1;exitX=0.5;exitY=1;exitDx=0;exitDy=0;entryX=0.5;entryY=0;entryDx=0;entryDy=0;" parent="1" source="Yse4lq7M_VT5U85Rjjpq-11" target="Yse4lq7M_VT5U85Rjjpq-25" edge="1">
                    <mxGeometry relative="1" as="geometry"/>
                </mxCell>
                <mxCell id="Yse4lq7M_VT5U85Rjjpq-11" value="5-1: Choisir Lusin" style="rounded=1;whiteSpace=wrap;html=1;fillColor=#dae8fc;strokeColor=#6c8ebf;fontColor=#050505;" parent="1" vertex="1">
                    <mxGeometry x="490" y="230" width="110" height="50" as="geometry"/>
                </mxCell>
                <mxCell id="Yse4lq7M_VT5U85Rjjpq-62" style="edgeStyle=orthogonalEdgeStyle;rounded=0;orthogonalLoop=1;jettySize=auto;html=1;exitX=0.5;exitY=1;exitDx=0;exitDy=0;entryX=0.5;entryY=0;entryDx=0;entryDy=0;" parent="1" edge="1">
                    <mxGeometry relative="1" as="geometry">
                        <mxPoint x="105" y="450" as="targetPoint"/>
                    </mxGeometry>
                </mxCell>
                <mxCell id="Yse4lq7M_VT5U85Rjjpq-60" style="edgeStyle=orthogonalEdgeStyle;rounded=0;orthogonalLoop=1;jettySize=auto;html=1;exitX=0.5;exitY=1;exitDx=0;exitDy=0;entryX=0.5;entryY=0;entryDx=0;entryDy=0;" parent="1" edge="1">
                    <mxGeometry relative="1" as="geometry">
                        <mxPoint x="260" y="430" as="sourcePoint"/>
                    </mxGeometry>
                </mxCell>
                <mxCell id="Yse4lq7M_VT5U85Rjjpq-58" style="edgeStyle=orthogonalEdgeStyle;rounded=0;orthogonalLoop=1;jettySize=auto;html=1;exitX=0.5;exitY=1;exitDx=0;exitDy=0;entryX=0.5;entryY=0;entryDx=0;entryDy=0;" parent="1" edge="1">
                    <mxGeometry relative="1" as="geometry">
                        <mxPoint x="405" y="430" as="sourcePoint"/>
                    </mxGeometry>
                </mxCell>
                <mxCell id="Yse4lq7M_VT5U85Rjjpq-56" style="edgeStyle=orthogonalEdgeStyle;rounded=0;orthogonalLoop=1;jettySize=auto;html=1;exitX=0.5;exitY=1;exitDx=0;exitDy=0;" parent="1" edge="1">
                    <mxGeometry relative="1" as="geometry">
                        <mxPoint x="545" y="430" as="sourcePoint"/>
                    </mxGeometry>
                </mxCell>
                <mxCell id="Qtx2kLDK2WUelq4MLout-6" style="edgeStyle=orthogonalEdgeStyle;rounded=0;orthogonalLoop=1;jettySize=auto;html=1;exitX=0.5;exitY=1;exitDx=0;exitDy=0;entryX=0.5;entryY=0;entryDx=0;entryDy=0;" parent="1" source="Yse4lq7M_VT5U85Rjjpq-25" target="Yse4lq7M_VT5U85Rjjpq-31" edge="1">
                    <mxGeometry relative="1" as="geometry"/>
                </mxCell>
                <mxCell id="Qtx2kLDK2WUelq4MLout-7" style="edgeStyle=orthogonalEdgeStyle;rounded=0;orthogonalLoop=1;jettySize=auto;html=1;exitX=0.5;exitY=1;exitDx=0;exitDy=0;entryX=0.5;entryY=0;entryDx=0;entryDy=0;" parent="1" source="Yse4lq7M_VT5U85Rjjpq-25" target="Yse4lq7M_VT5U85Rjjpq-32" edge="1">
                    <mxGeometry relative="1" as="geometry"/>
                </mxCell>
                <mxCell id="Qtx2kLDK2WUelq4MLout-8" style="edgeStyle=orthogonalEdgeStyle;rounded=0;orthogonalLoop=1;jettySize=auto;html=1;exitX=0.5;exitY=1;exitDx=0;exitDy=0;entryX=0.5;entryY=0;entryDx=0;entryDy=0;" parent="1" source="Yse4lq7M_VT5U85Rjjpq-25" target="Yse4lq7M_VT5U85Rjjpq-41" edge="1">
                    <mxGeometry relative="1" as="geometry"/>
                </mxCell>
                <mxCell id="Qtx2kLDK2WUelq4MLout-9" style="edgeStyle=orthogonalEdgeStyle;rounded=0;orthogonalLoop=1;jettySize=auto;html=1;exitX=0.5;exitY=1;exitDx=0;exitDy=0;" parent="1" source="Yse4lq7M_VT5U85Rjjpq-25" target="Yse4lq7M_VT5U85Rjjpq-36" edge="1">
                    <mxGeometry relative="1" as="geometry"/>
                </mxCell>
                <mxCell id="Yse4lq7M_VT5U85Rjjpq-25" value="1-2: Meutre de Lorie" style="rounded=1;whiteSpace=wrap;html=1;" parent="1" vertex="1">
                    <mxGeometry x="285" y="360" width="110" height="50" as="geometry"/>
                </mxCell>
                <mxCell id="Yse4lq7M_VT5U85Rjjpq-70" style="edgeStyle=orthogonalEdgeStyle;rounded=0;orthogonalLoop=1;jettySize=auto;html=1;exitX=0.5;exitY=1;exitDx=0;exitDy=0;entryX=0.5;entryY=0;entryDx=0;entryDy=0;" parent="1" source="Yse4lq7M_VT5U85Rjjpq-31" target="Yse4lq7M_VT5U85Rjjpq-34" edge="1">
                    <mxGeometry relative="1" as="geometry"/>
                </mxCell>
                <mxCell id="Yse4lq7M_VT5U85Rjjpq-31" value="3-2: Conflit contre Pain" style="rounded=1;whiteSpace=wrap;html=1;fillColor=#fff2cc;strokeColor=#d6b656;fontColor=#050505;" parent="1" vertex="1">
                    <mxGeometry x="190" y="450" width="140" height="50" as="geometry"/>
                </mxCell>
                <mxCell id="Yse4lq7M_VT5U85Rjjpq-69" style="edgeStyle=orthogonalEdgeStyle;rounded=0;orthogonalLoop=1;jettySize=auto;html=1;exitX=0.5;exitY=1;exitDx=0;exitDy=0;" parent="1" source="Yse4lq7M_VT5U85Rjjpq-32" target="Yse4lq7M_VT5U85Rjjpq-34" edge="1">
                    <mxGeometry relative="1" as="geometry"/>
                </mxCell>
                <mxCell id="Yse4lq7M_VT5U85Rjjpq-32" value="4-2: Conflit contre Cherminon" style="rounded=1;whiteSpace=wrap;html=1;fillColor=#ffe6cc;strokeColor=#d79b00;fontColor=#050505;" parent="1" vertex="1">
                    <mxGeometry x="350" y="450" width="110" height="50" as="geometry"/>
                </mxCell>
                <mxCell id="Yse4lq7M_VT5U85Rjjpq-34" value="1-3: Bataille" style="rounded=1;whiteSpace=wrap;html=1;fillColor=#ffe6cc;strokeColor=#d79b00;fontColor=#050505;" parent="1" vertex="1">
                    <mxGeometry x="285" y="540" width="110" height="50" as="geometry"/>
                </mxCell>
                <mxCell id="Yse4lq7M_VT5U85Rjjpq-81" style="edgeStyle=orthogonalEdgeStyle;rounded=0;orthogonalLoop=1;jettySize=auto;html=1;exitX=0.5;exitY=1;exitDx=0;exitDy=0;entryX=0.5;entryY=0;entryDx=0;entryDy=0;" parent="1" source="Yse4lq7M_VT5U85Rjjpq-36" target="Yse4lq7M_VT5U85Rjjpq-43" edge="1">
                    <mxGeometry relative="1" as="geometry"/>
                </mxCell>
                <mxCell id="Yse4lq7M_VT5U85Rjjpq-36" value="5-2: ThÃ©orie avec Lusin" style="rounded=1;whiteSpace=wrap;html=1;fillColor=#dae8fc;strokeColor=#6c8ebf;fontColor=#050505;" parent="1" vertex="1">
                    <mxGeometry x="490" y="450" width="110" height="50" as="geometry"/>
                </mxCell>
                <mxCell id="Yse4lq7M_VT5U85Rjjpq-66" style="edgeStyle=orthogonalEdgeStyle;rounded=0;orthogonalLoop=1;jettySize=auto;html=1;exitX=0.5;exitY=1;exitDx=0;exitDy=0;entryX=0.5;entryY=0;entryDx=0;entryDy=0;" parent="1" source="Yse4lq7M_VT5U85Rjjpq-41" target="Yse4lq7M_VT5U85Rjjpq-42" edge="1">
                    <mxGeometry relative="1" as="geometry"/>
                </mxCell>
                <mxCell id="Yse4lq7M_VT5U85Rjjpq-41" value="2-2: Investigation avec Alvart" style="rounded=1;whiteSpace=wrap;html=1;fillColor=#d5e8d4;strokeColor=#82b366;fontColor=#050505;" parent="1" vertex="1">
                    <mxGeometry x="50" y="450" width="110" height="50" as="geometry"/>
                </mxCell>
                <mxCell id="Qtx2kLDK2WUelq4MLout-10" style="edgeStyle=orthogonalEdgeStyle;rounded=0;orthogonalLoop=1;jettySize=auto;html=1;exitX=0.5;exitY=1;exitDx=0;exitDy=0;" parent="1" source="Yse4lq7M_VT5U85Rjjpq-42" target="Yse4lq7M_VT5U85Rjjpq-44" edge="1">
                    <mxGeometry relative="1" as="geometry">
                        <Array as="points">
                            <mxPoint x="105" y="620"/>
                            <mxPoint x="340" y="620"/>
                        </Array>
                    </mxGeometry>
                </mxCell>
                <mxCell id="Yse4lq7M_VT5U85Rjjpq-42" value="2-3: Alvart accuse Lusin" style="rounded=1;whiteSpace=wrap;html=1;fillColor=#d5e8d4;strokeColor=#82b366;fontColor=#050505;" parent="1" vertex="1">
                    <mxGeometry x="50" y="540" width="110" height="50" as="geometry"/>
                </mxCell>
                <mxCell id="Qtx2kLDK2WUelq4MLout-11" style="edgeStyle=orthogonalEdgeStyle;rounded=0;orthogonalLoop=1;jettySize=auto;html=1;exitX=0.5;exitY=1;exitDx=0;exitDy=0;" parent="1" source="Yse4lq7M_VT5U85Rjjpq-43" target="Yse4lq7M_VT5U85Rjjpq-44" edge="1">
                    <mxGeometry relative="1" as="geometry">
                        <Array as="points">
                            <mxPoint x="545" y="620"/>
                            <mxPoint x="340" y="620"/>
                        </Array>
                    </mxGeometry>
                </mxCell>
                <mxCell id="Yse4lq7M_VT5U85Rjjpq-43" value="5-3: Confession de Lusin" style="rounded=1;whiteSpace=wrap;html=1;fillColor=#dae8fc;strokeColor=#6c8ebf;fontColor=#050505;" parent="1" vertex="1">
                    <mxGeometry x="490" y="540" width="110" height="50" as="geometry"/>
                </mxCell>
                <mxCell id="Yse4lq7M_VT5U85Rjjpq-79" style="edgeStyle=orthogonalEdgeStyle;rounded=0;orthogonalLoop=1;jettySize=auto;html=1;exitX=0.5;exitY=1;exitDx=0;exitDy=0;" parent="1" source="Yse4lq7M_VT5U85Rjjpq-44" target="Yse4lq7M_VT5U85Rjjpq-46" edge="1">
                    <mxGeometry relative="1" as="geometry"/>
                </mxCell>
                <mxCell id="Yse4lq7M_VT5U85Rjjpq-80" style="edgeStyle=orthogonalEdgeStyle;rounded=0;orthogonalLoop=1;jettySize=auto;html=1;exitX=0.5;exitY=1;exitDx=0;exitDy=0;" parent="1" source="Yse4lq7M_VT5U85Rjjpq-44" target="Yse4lq7M_VT5U85Rjjpq-45" edge="1">
                    <mxGeometry relative="1" as="geometry"/>
                </mxCell>
                <mxCell id="Yse4lq7M_VT5U85Rjjpq-44" value="1-4: Assaut" style="rounded=1;whiteSpace=wrap;html=1;" parent="1" vertex="1">
                    <mxGeometry x="290" y="650" width="110" height="50" as="geometry"/>
                </mxCell>
                <mxCell id="Yse4lq7M_VT5U85Rjjpq-45" value="1-6: Fin de Lusin" style="rounded=1;whiteSpace=wrap;html=1;fillColor=#dae8fc;strokeColor=#6c8ebf;fontColor=#050505;" parent="1" vertex="1">
                    <mxGeometry x="370" y="750" width="110" height="50" as="geometry"/>
                </mxCell>
                <mxCell id="Yse4lq7M_VT5U85Rjjpq-46" value="1-5: Fin commune" style="rounded=1;whiteSpace=wrap;html=1;" parent="1" vertex="1">
                    <mxGeometry x="220" y="750" width="110" height="50" as="geometry"/>
                </mxCell>
                <mxCell id="Qtx2kLDK2WUelq4MLout-13" style="edgeStyle=orthogonalEdgeStyle;rounded=0;orthogonalLoop=1;jettySize=auto;html=1;exitX=0.5;exitY=1;exitDx=0;exitDy=0;entryX=0.451;entryY=0.011;entryDx=0;entryDy=0;entryPerimeter=0;" parent="1" source="Yse4lq7M_VT5U85Rjjpq-34" target="Yse4lq7M_VT5U85Rjjpq-44" edge="1">
                    <mxGeometry relative="1" as="geometry"/>
                </mxCell>
            </root>
        </mxGraphModel>
    </diagram>
</mxfile>